<mxfile host="65bd71144e" pages="3">
    <diagram id="larw30alOFT5n53_D4Em" name="Page-2">
        <mxGraphModel dx="1429" dy="589" grid="1" gridSize="10" guides="1" tooltips="1" connect="1" arrows="1" fold="1" page="1" pageScale="1" pageWidth="827" pageHeight="1169" math="0" shadow="0">
            <root>
                <mxCell id="DIUh1twM4FzP41Bn47-0-0"/>
                <mxCell id="DIUh1twM4FzP41Bn47-0-1" parent="DIUh1twM4FzP41Bn47-0-0"/>
                <mxCell id="n5K2KYwe8K68d8JaNF-x-29" value="" style="group" parent="DIUh1twM4FzP41Bn47-0-1" vertex="1" connectable="0">
                    <mxGeometry x="52" y="160" width="400" height="750" as="geometry"/>
                </mxCell>
                <mxCell id="n5K2KYwe8K68d8JaNF-x-0" value="" style="rounded=0;whiteSpace=wrap;html=1;fillColor=#FF7C80;strokeColor=none;" parent="n5K2KYwe8K68d8JaNF-x-29" vertex="1">
                    <mxGeometry y="490" width="400" height="140" as="geometry"/>
                </mxCell>
                <mxCell id="n5K2KYwe8K68d8JaNF-x-2" value="&lt;span&gt;&lt;font color=&quot;#000000&quot;&gt;Ethernet Drvier&lt;/font&gt;&lt;/span&gt;" style="rounded=0;whiteSpace=wrap;html=1;fontColor=#ffffff;fillColor=#808080;strokeColor=none;" parent="n5K2KYwe8K68d8JaNF-x-29" vertex="1">
                    <mxGeometry y="640" width="400" height="40" as="geometry"/>
                </mxCell>
                <mxCell id="n5K2KYwe8K68d8JaNF-x-3" value="&lt;font color=&quot;#000000&quot;&gt;Mcal&lt;/font&gt;" style="text;html=1;strokeColor=none;fillColor=none;align=center;verticalAlign=middle;whiteSpace=wrap;rounded=0;" parent="n5K2KYwe8K68d8JaNF-x-29" vertex="1">
                    <mxGeometry y="640" width="40" height="20" as="geometry"/>
                </mxCell>
                <mxCell id="n5K2KYwe8K68d8JaNF-x-4" value="&lt;font color=&quot;#ffffff&quot;&gt;External Ethernet Controller&lt;/font&gt;" style="rounded=0;whiteSpace=wrap;html=1;fillColor=#000000;strokeColor=none;" parent="n5K2KYwe8K68d8JaNF-x-29" vertex="1">
                    <mxGeometry y="710" width="400" height="40" as="geometry"/>
                </mxCell>
                <mxCell id="n5K2KYwe8K68d8JaNF-x-1" style="edgeStyle=orthogonalEdgeStyle;rounded=0;orthogonalLoop=1;jettySize=auto;html=1;exitX=0.5;exitY=1;exitDx=0;exitDy=0;entryX=0.5;entryY=0;entryDx=0;entryDy=0;endArrow=none;endFill=0;" parent="n5K2KYwe8K68d8JaNF-x-29" source="n5K2KYwe8K68d8JaNF-x-2" target="n5K2KYwe8K68d8JaNF-x-4" edge="1">
                    <mxGeometry relative="1" as="geometry"/>
                </mxCell>
                <mxCell id="n5K2KYwe8K68d8JaNF-x-5" value="&lt;font color=&quot;#ffffff&quot;&gt;Hardware&lt;/font&gt;" style="text;html=1;strokeColor=none;fillColor=none;align=center;verticalAlign=middle;whiteSpace=wrap;rounded=0;" parent="n5K2KYwe8K68d8JaNF-x-29" vertex="1">
                    <mxGeometry x="10" y="710" width="40" height="20" as="geometry"/>
                </mxCell>
                <mxCell id="n5K2KYwe8K68d8JaNF-x-6" value="&lt;font color=&quot;#009999&quot;&gt;SMI MII&lt;/font&gt;" style="text;html=1;strokeColor=none;fillColor=none;align=center;verticalAlign=middle;whiteSpace=wrap;rounded=0;" parent="n5K2KYwe8K68d8JaNF-x-29" vertex="1">
                    <mxGeometry x="196" y="687" width="40" height="20" as="geometry"/>
                </mxCell>
                <mxCell id="n5K2KYwe8K68d8JaNF-x-7" value="" style="rounded=0;whiteSpace=wrap;html=1;fillColor=#00CC99;strokeColor=none;" parent="n5K2KYwe8K68d8JaNF-x-29" vertex="1">
                    <mxGeometry y="50" width="400" height="430" as="geometry"/>
                </mxCell>
                <mxCell id="n5K2KYwe8K68d8JaNF-x-8" value="Communication Hardware Abstraction" style="text;html=1;strokeColor=none;fillColor=none;align=center;verticalAlign=middle;whiteSpace=wrap;rounded=0;fontColor=#000000;" parent="n5K2KYwe8K68d8JaNF-x-29" vertex="1">
                    <mxGeometry x="85" y="500" width="230" height="20" as="geometry"/>
                </mxCell>
                <mxCell id="n5K2KYwe8K68d8JaNF-x-9" value="Communication Service" style="text;html=1;strokeColor=none;fillColor=none;align=center;verticalAlign=middle;whiteSpace=wrap;rounded=0;" parent="n5K2KYwe8K68d8JaNF-x-29" vertex="1">
                    <mxGeometry x="115" y="60" width="170" height="20" as="geometry"/>
                </mxCell>
                <mxCell id="n5K2KYwe8K68d8JaNF-x-10" value="" style="rounded=0;whiteSpace=wrap;html=1;fillColor=#9999FF;strokeColor=none;" parent="n5K2KYwe8K68d8JaNF-x-29" vertex="1">
                    <mxGeometry x="10" y="340" width="380" height="130" as="geometry"/>
                </mxCell>
                <mxCell id="n5K2KYwe8K68d8JaNF-x-11" value="Socket Adaptor" style="rounded=0;whiteSpace=wrap;html=1;fillColor=#CCCCFF;fontColor=#000000;strokeColor=none;" parent="n5K2KYwe8K68d8JaNF-x-29" vertex="1">
                    <mxGeometry x="10" y="290" width="380" height="40" as="geometry"/>
                </mxCell>
                <mxCell id="n5K2KYwe8K68d8JaNF-x-12" value="PDU Router" style="rounded=0;whiteSpace=wrap;html=1;fillColor=#CCCCFF;fontColor=#000000;strokeColor=none;" parent="n5K2KYwe8K68d8JaNF-x-29" vertex="1">
                    <mxGeometry x="10" y="190" width="210" height="40" as="geometry"/>
                </mxCell>
                <mxCell id="n5K2KYwe8K68d8JaNF-x-13" value="&lt;div&gt;Large Data&amp;nbsp;&lt;/div&gt;&lt;div&gt;COM&lt;/div&gt;" style="rounded=0;whiteSpace=wrap;html=1;fillColor=#CCCCFF;fontColor=#000000;strokeColor=none;" parent="n5K2KYwe8K68d8JaNF-x-29" vertex="1">
                    <mxGeometry x="10" y="90" width="40" height="90" as="geometry"/>
                </mxCell>
                <mxCell id="n5K2KYwe8K68d8JaNF-x-14" value="&lt;div&gt;AUTOSAR&amp;nbsp;&lt;/div&gt;&lt;div&gt;COM&lt;/div&gt;" style="rounded=0;whiteSpace=wrap;html=1;fillColor=#CCCCFF;fontColor=#000000;strokeColor=none;" parent="n5K2KYwe8K68d8JaNF-x-29" vertex="1">
                    <mxGeometry x="70" y="90" width="70" height="90" as="geometry"/>
                </mxCell>
                <mxCell id="n5K2KYwe8K68d8JaNF-x-15" value="&lt;div&gt;Diagnostic&amp;nbsp;&lt;/div&gt;&lt;div&gt;Com. Manager&lt;/div&gt;" style="rounded=0;whiteSpace=wrap;html=1;fillColor=#CCCCFF;fontColor=#000000;strokeColor=none;" parent="n5K2KYwe8K68d8JaNF-x-29" vertex="1">
                    <mxGeometry x="160" y="90" width="60" height="90" as="geometry"/>
                </mxCell>
                <mxCell id="n5K2KYwe8K68d8JaNF-x-16" value="&lt;div&gt;Generic NM&amp;nbsp;&lt;/div&gt;&lt;div&gt;Interface&lt;/div&gt;" style="rounded=0;whiteSpace=wrap;html=1;fillColor=#CCCCFF;fontColor=#000000;strokeColor=none;" parent="n5K2KYwe8K68d8JaNF-x-29" vertex="1">
                    <mxGeometry x="240" y="90" width="80" height="50" as="geometry"/>
                </mxCell>
                <mxCell id="n5K2KYwe8K68d8JaNF-x-17" value="&lt;div&gt;Ethernet&lt;/div&gt;&lt;div&gt;State&amp;nbsp;&lt;/div&gt;&lt;div&gt;Manager&lt;/div&gt;" style="rounded=0;whiteSpace=wrap;html=1;fillColor=#CCCCFF;fontColor=#000000;strokeColor=none;" parent="n5K2KYwe8K68d8JaNF-x-29" vertex="1">
                    <mxGeometry x="334" y="90" width="56" height="190" as="geometry"/>
                </mxCell>
                <mxCell id="n5K2KYwe8K68d8JaNF-x-18" value="SD" style="rounded=0;whiteSpace=wrap;html=1;fillColor=#CCCCFF;fontColor=#000000;strokeColor=none;" parent="n5K2KYwe8K68d8JaNF-x-29" vertex="1">
                    <mxGeometry x="10" y="240" width="90" height="40" as="geometry"/>
                </mxCell>
                <mxCell id="n5K2KYwe8K68d8JaNF-x-19" value="DoIP" style="rounded=0;whiteSpace=wrap;html=1;fillColor=#CCCCFF;fontColor=#000000;strokeColor=none;" parent="n5K2KYwe8K68d8JaNF-x-29" vertex="1">
                    <mxGeometry x="120" y="240" width="100" height="40" as="geometry"/>
                </mxCell>
                <mxCell id="n5K2KYwe8K68d8JaNF-x-20" value="&lt;span&gt;UDP NM&lt;/span&gt;" style="rounded=0;whiteSpace=wrap;html=1;fillColor=#CCCCFF;fontColor=#000000;strokeColor=none;" parent="n5K2KYwe8K68d8JaNF-x-29" vertex="1">
                    <mxGeometry x="240" y="150" width="80" height="130" as="geometry"/>
                </mxCell>
                <mxCell id="n5K2KYwe8K68d8JaNF-x-21" value="RTE" style="rounded=0;whiteSpace=wrap;html=1;fillColor=#e51400;strokeColor=#B20000;fontColor=#ffffff;" parent="n5K2KYwe8K68d8JaNF-x-29" vertex="1">
                    <mxGeometry width="400" height="40" as="geometry"/>
                </mxCell>
                <mxCell id="n5K2KYwe8K68d8JaNF-x-22" value="Ethernet Switch Drvier" style="rounded=0;whiteSpace=wrap;html=1;fillColor=#CCCCFF;fontColor=#000000;strokeColor=none;" parent="n5K2KYwe8K68d8JaNF-x-29" vertex="1">
                    <mxGeometry x="210" y="580" width="180" height="40" as="geometry"/>
                </mxCell>
                <mxCell id="n5K2KYwe8K68d8JaNF-x-23" value="&lt;span&gt;Ethernet Transceiver Drvier&lt;/span&gt;" style="rounded=0;whiteSpace=wrap;html=1;fillColor=#CCCCFF;fontColor=#000000;strokeColor=none;" parent="n5K2KYwe8K68d8JaNF-x-29" vertex="1">
                    <mxGeometry x="10" y="580" width="180" height="40" as="geometry"/>
                </mxCell>
                <mxCell id="n5K2KYwe8K68d8JaNF-x-24" value="&lt;span&gt;Ethernet Interface&lt;/span&gt;" style="rounded=0;whiteSpace=wrap;html=1;fillColor=#CCCCFF;fontColor=#000000;strokeColor=none;" parent="n5K2KYwe8K68d8JaNF-x-29" vertex="1">
                    <mxGeometry x="10" y="520" width="380" height="45" as="geometry"/>
                </mxCell>
                <mxCell id="n5K2KYwe8K68d8JaNF-x-25" value="IP(ARP,ICMP)" style="rounded=0;whiteSpace=wrap;html=1;fillColor=#CCCCFF;fontColor=#000000;strokeColor=none;" parent="n5K2KYwe8K68d8JaNF-x-29" vertex="1">
                    <mxGeometry x="20" y="420" width="360" height="40" as="geometry"/>
                </mxCell>
                <mxCell id="n5K2KYwe8K68d8JaNF-x-26" value="TCP" style="rounded=0;whiteSpace=wrap;html=1;fillColor=#CCCCFF;fontColor=#000000;strokeColor=none;" parent="n5K2KYwe8K68d8JaNF-x-29" vertex="1">
                    <mxGeometry x="20" y="370" width="170" height="40" as="geometry"/>
                </mxCell>
                <mxCell id="n5K2KYwe8K68d8JaNF-x-27" value="UDP" style="rounded=0;whiteSpace=wrap;html=1;fillColor=#CCCCFF;fontColor=#000000;strokeColor=none;" parent="n5K2KYwe8K68d8JaNF-x-29" vertex="1">
                    <mxGeometry x="210" y="370" width="170" height="40" as="geometry"/>
                </mxCell>
                <mxCell id="n5K2KYwe8K68d8JaNF-x-28" value="&lt;br&gt;&lt;br&gt;&lt;span style=&quot;font-family: &amp;#34;helvetica&amp;#34;&quot;&gt;TCP/IP Communication Services&lt;/span&gt;" style="text;html=1;strokeColor=none;fillColor=none;align=center;verticalAlign=middle;whiteSpace=wrap;rounded=0;fontColor=#000000;" parent="n5K2KYwe8K68d8JaNF-x-29" vertex="1">
                    <mxGeometry x="105" y="330" width="190" height="20" as="geometry"/>
                </mxCell>
                <mxCell id="ley6-sSNbE-yPjUcOKww-0" value="&lt;font style=&quot;font-size: 18px&quot;&gt;应用层&lt;/font&gt;" style="rounded=0;whiteSpace=wrap;html=1;fillColor=#4D4D4D;strokeColor=none;fontColor=#FFFFFF;" parent="DIUh1twM4FzP41Bn47-0-1" vertex="1">
                    <mxGeometry x="-180" y="390" width="200" height="50" as="geometry"/>
                </mxCell>
                <mxCell id="ley6-sSNbE-yPjUcOKww-1" value="传输层" style="rounded=0;whiteSpace=wrap;html=1;fontSize=18;fillColor=#4D4D4D;strokeColor=none;fontColor=#FFFFFF;" parent="DIUh1twM4FzP41Bn47-0-1" vertex="1">
                    <mxGeometry x="-180" y="520" width="200" height="50" as="geometry"/>
                </mxCell>
                <mxCell id="ley6-sSNbE-yPjUcOKww-2" value="网络层" style="rounded=0;whiteSpace=wrap;html=1;fontSize=18;fillColor=#4D4D4D;strokeColor=none;fontColor=#FFFFFF;" parent="DIUh1twM4FzP41Bn47-0-1" vertex="1">
                    <mxGeometry x="-180" y="580" width="200" height="50" as="geometry"/>
                </mxCell>
                <mxCell id="ley6-sSNbE-yPjUcOKww-3" value="数据链路层" style="rounded=0;whiteSpace=wrap;html=1;fontSize=18;fillColor=#4D4D4D;strokeColor=none;fontColor=#FFFFFF;" parent="DIUh1twM4FzP41Bn47-0-1" vertex="1">
                    <mxGeometry x="-180" y="790" width="200" height="50" as="geometry"/>
                </mxCell>
                <mxCell id="ley6-sSNbE-yPjUcOKww-4" value="物理层" style="rounded=0;whiteSpace=wrap;html=1;fontSize=18;strokeColor=none;fillColor=#4D4D4D;fontColor=#FFFFFF;" parent="DIUh1twM4FzP41Bn47-0-1" vertex="1">
                    <mxGeometry x="-180" y="860" width="200" height="50" as="geometry"/>
                </mxCell>
                <mxCell id="ley6-sSNbE-yPjUcOKww-6" value="" style="endArrow=none;html=1;fontSize=18;entryX=1;entryY=0;entryDx=0;entryDy=0;exitX=0;exitY=0;exitDx=0;exitDy=0;strokeColor=#000000;" parent="DIUh1twM4FzP41Bn47-0-1" source="n5K2KYwe8K68d8JaNF-x-21" target="ley6-sSNbE-yPjUcOKww-0" edge="1">
                    <mxGeometry width="50" height="50" relative="1" as="geometry">
                        <mxPoint x="522" y="450" as="sourcePoint"/>
                        <mxPoint x="572" y="400" as="targetPoint"/>
                    </mxGeometry>
                </mxCell>
                <mxCell id="ley6-sSNbE-yPjUcOKww-9" value="" style="endArrow=none;html=1;fontSize=18;entryX=1;entryY=0;entryDx=0;entryDy=0;exitX=0;exitY=0;exitDx=0;exitDy=0;strokeColor=#000000;" parent="DIUh1twM4FzP41Bn47-0-1" source="n5K2KYwe8K68d8JaNF-x-11" target="ley6-sSNbE-yPjUcOKww-1" edge="1">
                    <mxGeometry width="50" height="50" relative="1" as="geometry">
                        <mxPoint x="522" y="450" as="sourcePoint"/>
                        <mxPoint x="572" y="400" as="targetPoint"/>
                    </mxGeometry>
                </mxCell>
                <mxCell id="ley6-sSNbE-yPjUcOKww-11" value="" style="endArrow=none;html=1;fontSize=18;exitX=0;exitY=0;exitDx=0;exitDy=0;entryX=1;entryY=0;entryDx=0;entryDy=0;strokeColor=#000000;" parent="DIUh1twM4FzP41Bn47-0-1" source="n5K2KYwe8K68d8JaNF-x-25" target="ley6-sSNbE-yPjUcOKww-2" edge="1">
                    <mxGeometry width="50" height="50" relative="1" as="geometry">
                        <mxPoint x="522" y="690" as="sourcePoint"/>
                        <mxPoint x="572" y="640" as="targetPoint"/>
                    </mxGeometry>
                </mxCell>
                <mxCell id="ley6-sSNbE-yPjUcOKww-13" value="" style="endArrow=none;html=1;fontSize=18;exitX=0;exitY=0;exitDx=0;exitDy=0;entryX=1;entryY=0;entryDx=0;entryDy=0;strokeColor=#000000;" parent="DIUh1twM4FzP41Bn47-0-1" source="n5K2KYwe8K68d8JaNF-x-0" target="ley6-sSNbE-yPjUcOKww-3" edge="1">
                    <mxGeometry width="50" height="50" relative="1" as="geometry">
                        <mxPoint x="522" y="690" as="sourcePoint"/>
                        <mxPoint x="572" y="640" as="targetPoint"/>
                    </mxGeometry>
                </mxCell>
                <mxCell id="ley6-sSNbE-yPjUcOKww-15" value="" style="endArrow=none;html=1;fontSize=18;entryX=1;entryY=1;entryDx=0;entryDy=0;strokeColor=#000000;exitX=0;exitY=1;exitDx=0;exitDy=0;" parent="DIUh1twM4FzP41Bn47-0-1" source="n5K2KYwe8K68d8JaNF-x-4" target="ley6-sSNbE-yPjUcOKww-4" edge="1">
                    <mxGeometry width="50" height="50" relative="1" as="geometry">
                        <mxPoint x="50" y="910" as="sourcePoint"/>
                        <mxPoint x="572" y="520" as="targetPoint"/>
                    </mxGeometry>
                </mxCell>
                <mxCell id="ley6-sSNbE-yPjUcOKww-16" value="" style="endArrow=none;html=1;fontSize=18;exitX=0;exitY=0;exitDx=0;exitDy=0;entryX=1;entryY=0;entryDx=0;entryDy=0;strokeColor=#000000;" parent="DIUh1twM4FzP41Bn47-0-1" source="n5K2KYwe8K68d8JaNF-x-4" target="ley6-sSNbE-yPjUcOKww-4" edge="1">
                    <mxGeometry width="50" height="50" relative="1" as="geometry">
                        <mxPoint x="522" y="570" as="sourcePoint"/>
                        <mxPoint x="572" y="520" as="targetPoint"/>
                    </mxGeometry>
                </mxCell>
                <mxCell id="0" value="" style="endArrow=none;html=1;fontSize=18;entryX=1;entryY=1;entryDx=0;entryDy=0;strokeColor=#000000;exitX=0;exitY=1;exitDx=0;exitDy=0;" edge="1" parent="DIUh1twM4FzP41Bn47-0-1" source="n5K2KYwe8K68d8JaNF-x-2" target="ley6-sSNbE-yPjUcOKww-3">
                    <mxGeometry width="50" height="50" relative="1" as="geometry">
                        <mxPoint x="61.99999999999977" y="920" as="sourcePoint"/>
                        <mxPoint x="30" y="920" as="targetPoint"/>
                    </mxGeometry>
                </mxCell>
                <mxCell id="5" value="" style="endArrow=none;html=1;fontSize=18;entryX=1;entryY=1;entryDx=0;entryDy=0;strokeColor=#000000;exitX=0;exitY=1;exitDx=0;exitDy=0;" edge="1" parent="DIUh1twM4FzP41Bn47-0-1" source="n5K2KYwe8K68d8JaNF-x-25" target="ley6-sSNbE-yPjUcOKww-2">
                    <mxGeometry width="50" height="50" relative="1" as="geometry">
                        <mxPoint x="62" y="630" as="sourcePoint"/>
                        <mxPoint x="20" y="640" as="targetPoint"/>
                    </mxGeometry>
                </mxCell>
                <mxCell id="6" value="" style="endArrow=none;html=1;fontSize=18;entryX=1;entryY=1;entryDx=0;entryDy=0;strokeColor=#000000;exitX=0;exitY=1;exitDx=0;exitDy=0;" edge="1" parent="DIUh1twM4FzP41Bn47-0-1">
                    <mxGeometry width="50" height="50" relative="1" as="geometry">
                        <mxPoint x="51.99999999999977" y="570" as="sourcePoint"/>
                        <mxPoint x="20" y="570" as="targetPoint"/>
                    </mxGeometry>
                </mxCell>
                <mxCell id="7" value="" style="endArrow=none;html=1;fontSize=18;entryX=1;entryY=1;entryDx=0;entryDy=0;strokeColor=#000000;exitX=0;exitY=1;exitDx=0;exitDy=0;" edge="1" parent="DIUh1twM4FzP41Bn47-0-1">
                    <mxGeometry width="50" height="50" relative="1" as="geometry">
                        <mxPoint x="51.99999999999977" y="440" as="sourcePoint"/>
                        <mxPoint x="20" y="440" as="targetPoint"/>
                    </mxGeometry>
                </mxCell>
            </root>
        </mxGraphModel>
    </diagram>
    <diagram id="7iLojW676JwXWUaHXiUE" name="Page-1">
        <mxGraphModel dx="1053" dy="2199" grid="1" gridSize="10" guides="1" tooltips="1" connect="1" arrows="1" fold="1" page="1" pageScale="1" pageWidth="827" pageHeight="1169" math="0" shadow="0">
            <root>
                <mxCell id="0"/>
                <mxCell id="1" parent="0"/>
                <mxCell id="73" value="" style="rounded=0;whiteSpace=wrap;html=1;fillColor=#009999;" parent="1" vertex="1">
                    <mxGeometry x="80" y="120" width="400" height="190" as="geometry"/>
                </mxCell>
                <mxCell id="8" style="edgeStyle=orthogonalEdgeStyle;rounded=0;orthogonalLoop=1;jettySize=auto;html=1;exitX=0.5;exitY=1;exitDx=0;exitDy=0;entryX=0.5;entryY=0;entryDx=0;entryDy=0;endArrow=none;endFill=0;" parent="1" source="2" target="5" edge="1">
                    <mxGeometry relative="1" as="geometry"/>
                </mxCell>
                <mxCell id="2" value="&lt;span&gt;Ethernet Drvier&lt;/span&gt;" style="rounded=0;whiteSpace=wrap;html=1;strokeColor=#006EAF;fontColor=#ffffff;fillColor=#3399FF;" parent="1" vertex="1">
                    <mxGeometry x="80" y="320" width="400" height="40" as="geometry"/>
                </mxCell>
                <mxCell id="3" value="Mcal" style="text;html=1;strokeColor=none;fillColor=none;align=center;verticalAlign=middle;whiteSpace=wrap;rounded=0;" parent="1" vertex="1">
                    <mxGeometry x="80" y="320" width="40" height="20" as="geometry"/>
                </mxCell>
                <mxCell id="5" value="External Ethernet Controller" style="rounded=0;whiteSpace=wrap;html=1;" parent="1" vertex="1">
                    <mxGeometry x="80" y="390" width="400" height="40" as="geometry"/>
                </mxCell>
                <mxCell id="6" value="Hardware" style="text;html=1;strokeColor=none;fillColor=none;align=center;verticalAlign=middle;whiteSpace=wrap;rounded=0;" parent="1" vertex="1">
                    <mxGeometry x="90" y="390" width="40" height="20" as="geometry"/>
                </mxCell>
                <mxCell id="9" value="SMI MII" style="text;html=1;strokeColor=none;fillColor=none;align=center;verticalAlign=middle;whiteSpace=wrap;rounded=0;" parent="1" vertex="1">
                    <mxGeometry x="276" y="367" width="40" height="20" as="geometry"/>
                </mxCell>
                <mxCell id="12" value="" style="rounded=0;whiteSpace=wrap;html=1;fillColor=#663300;" parent="1" vertex="1">
                    <mxGeometry x="80" y="-230" width="400" height="340" as="geometry"/>
                </mxCell>
                <mxCell id="62" value="" style="group;rotation=-180;" parent="1" vertex="1" connectable="0">
                    <mxGeometry x="165" y="220" width="260" height="80.00000000000001" as="geometry"/>
                </mxCell>
                <mxCell id="61" value="" style="endArrow=none;html=1;entryX=1;entryY=0;entryDx=0;entryDy=0;exitX=0;exitY=0;exitDx=0;exitDy=0;" parent="62" source="60" edge="1">
                    <mxGeometry width="50" height="50" relative="1" as="geometry">
                        <mxPoint x="159" y="31" as="sourcePoint"/>
                        <mxPoint y="31" as="targetPoint"/>
                    </mxGeometry>
                </mxCell>
                <mxCell id="65" value="" style="group" parent="62" vertex="1" connectable="0">
                    <mxGeometry y="-1.4210854715202004e-14" width="240" height="80.00000000000003" as="geometry"/>
                </mxCell>
                <mxCell id="59" value="" style="shape=partialRectangle;whiteSpace=wrap;html=1;bottom=1;right=1;left=1;top=0;fillColor=none;routingCenterX=-0.5;rotation=-180;flipV=0;" parent="65" vertex="1">
                    <mxGeometry y="1.4210854715202004e-14" width="240" height="30" as="geometry"/>
                </mxCell>
                <mxCell id="60" value="" style="shape=partialRectangle;whiteSpace=wrap;html=1;bottom=1;right=1;left=1;top=0;fillColor=none;routingCenterX=-0.5;rotation=-360;" parent="65" vertex="1">
                    <mxGeometry x="160" y="30.000000000000014" width="80" height="50" as="geometry"/>
                </mxCell>
                <mxCell id="63" value="Ethernet Switch Drvier" style="text;html=1;strokeColor=none;fillColor=none;align=center;verticalAlign=middle;whiteSpace=wrap;rounded=0;" parent="65" vertex="1">
                    <mxGeometry x="50" y="5.000000000000014" width="160" height="20" as="geometry"/>
                </mxCell>
                <mxCell id="64" value="" style="group;" parent="1" vertex="1" connectable="0">
                    <mxGeometry x="90" y="220" width="230" height="80" as="geometry"/>
                </mxCell>
                <mxCell id="54" value="&lt;span&gt;Ethernet Transceiver Drvier&lt;/span&gt;" style="shape=partialRectangle;whiteSpace=wrap;html=1;bottom=1;right=1;left=1;top=0;fillColor=none;routingCenterX=-0.5;" parent="64" vertex="1">
                    <mxGeometry y="50" width="230" height="30" as="geometry"/>
                </mxCell>
                <mxCell id="55" value="" style="shape=partialRectangle;whiteSpace=wrap;html=1;bottom=1;right=1;left=1;top=0;fillColor=none;routingCenterX=-0.5;rotation=-180;" parent="64" vertex="1">
                    <mxGeometry width="66.67" height="50" as="geometry"/>
                </mxCell>
                <mxCell id="57" value="" style="endArrow=none;html=1;entryX=1;entryY=0;entryDx=0;entryDy=0;exitX=0;exitY=0;exitDx=0;exitDy=0;" parent="64" source="55" edge="1">
                    <mxGeometry width="50" height="50" relative="1" as="geometry">
                        <mxPoint x="77.625" y="49" as="sourcePoint"/>
                        <mxPoint x="230" y="49" as="targetPoint"/>
                    </mxGeometry>
                </mxCell>
                <mxCell id="66" value="" style="shape=partialRectangle;whiteSpace=wrap;html=1;bottom=1;right=1;left=1;top=0;fillColor=none;routingCenterX=-0.5;rotation=-180;" parent="1" vertex="1">
                    <mxGeometry x="90" y="160" width="380" height="50" as="geometry"/>
                </mxCell>
                <mxCell id="68" value="Ethernet Interface" style="text;html=1;strokeColor=none;fillColor=none;align=center;verticalAlign=middle;whiteSpace=wrap;rounded=0;" parent="1" vertex="1">
                    <mxGeometry x="220" y="170" width="120" height="20" as="geometry"/>
                </mxCell>
                <mxCell id="69" value="" style="shape=partialRectangle;whiteSpace=wrap;html=1;bottom=1;right=1;left=1;top=0;fillColor=none;routingCenterX=-0.5;" parent="1" vertex="1">
                    <mxGeometry x="414" y="210" width="56" height="90" as="geometry"/>
                </mxCell>
                <mxCell id="71" style="edgeStyle=orthogonalEdgeStyle;rounded=0;orthogonalLoop=1;jettySize=auto;html=1;exitX=1;exitY=0;exitDx=0;exitDy=0;endArrow=none;endFill=0;" parent="1" source="66" edge="1">
                    <mxGeometry relative="1" as="geometry">
                        <mxPoint x="414" y="210" as="targetPoint"/>
                        <Array as="points">
                            <mxPoint x="90" y="210"/>
                            <mxPoint x="90" y="210"/>
                        </Array>
                    </mxGeometry>
                </mxCell>
                <mxCell id="74" value="Communication Hardware Abstraction" style="text;html=1;strokeColor=none;fillColor=none;align=center;verticalAlign=middle;whiteSpace=wrap;rounded=0;" parent="1" vertex="1">
                    <mxGeometry x="165" y="130" width="230" height="20" as="geometry"/>
                </mxCell>
                <mxCell id="77" value="Communication Service" style="text;html=1;strokeColor=none;fillColor=none;align=center;verticalAlign=middle;whiteSpace=wrap;rounded=0;" parent="1" vertex="1">
                    <mxGeometry x="195" y="-220" width="170" height="20" as="geometry"/>
                </mxCell>
                <mxCell id="78" value="TCP/IP Communication Services" style="rounded=0;whiteSpace=wrap;html=1;fillColor=none;" parent="1" vertex="1">
                    <mxGeometry x="90" y="60" width="380" height="40" as="geometry"/>
                </mxCell>
                <mxCell id="79" value="Socket Adaptor" style="rounded=0;whiteSpace=wrap;html=1;fillColor=none;" parent="1" vertex="1">
                    <mxGeometry x="90" y="10" width="380" height="40" as="geometry"/>
                </mxCell>
                <mxCell id="80" value="PDU Router" style="rounded=0;whiteSpace=wrap;html=1;fillColor=none;" parent="1" vertex="1">
                    <mxGeometry x="90" y="-90" width="210" height="40" as="geometry"/>
                </mxCell>
                <mxCell id="81" value="&lt;div&gt;Large Data&amp;nbsp;&lt;/div&gt;&lt;div&gt;COM&lt;/div&gt;" style="rounded=0;whiteSpace=wrap;html=1;fillColor=none;" parent="1" vertex="1">
                    <mxGeometry x="90" y="-190" width="40" height="90" as="geometry"/>
                </mxCell>
                <mxCell id="82" value="&lt;div&gt;AUTOSAR&amp;nbsp;&lt;/div&gt;&lt;div&gt;COM&lt;/div&gt;" style="rounded=0;whiteSpace=wrap;html=1;fillColor=none;" parent="1" vertex="1">
                    <mxGeometry x="150" y="-190" width="70" height="90" as="geometry"/>
                </mxCell>
                <mxCell id="83" value="&lt;div&gt;Diagnostic&amp;nbsp;&lt;/div&gt;&lt;div&gt;Com. Manager&lt;/div&gt;" style="rounded=0;whiteSpace=wrap;html=1;fillColor=none;" parent="1" vertex="1">
                    <mxGeometry x="240" y="-190" width="60" height="90" as="geometry"/>
                </mxCell>
                <mxCell id="85" value="&lt;div&gt;Generic NM&amp;nbsp;&lt;/div&gt;&lt;div&gt;Interface&lt;/div&gt;" style="rounded=0;whiteSpace=wrap;html=1;fillColor=none;" parent="1" vertex="1">
                    <mxGeometry x="320" y="-190" width="80" height="50" as="geometry"/>
                </mxCell>
                <mxCell id="87" value="&lt;div&gt;Ethernet&lt;/div&gt;&lt;div&gt;State&amp;nbsp;&lt;/div&gt;&lt;div&gt;Manager&lt;/div&gt;" style="rounded=0;whiteSpace=wrap;html=1;fillColor=none;" parent="1" vertex="1">
                    <mxGeometry x="414" y="-190" width="56" height="190" as="geometry"/>
                </mxCell>
                <mxCell id="88" value="SD" style="rounded=0;whiteSpace=wrap;html=1;fillColor=none;" parent="1" vertex="1">
                    <mxGeometry x="90" y="-40" width="90" height="40" as="geometry"/>
                </mxCell>
                <mxCell id="89" value="DoIP" style="rounded=0;whiteSpace=wrap;html=1;fillColor=none;" parent="1" vertex="1">
                    <mxGeometry x="200" y="-40" width="100" height="40" as="geometry"/>
                </mxCell>
                <mxCell id="90" value="&lt;span&gt;UDP NM&lt;/span&gt;" style="rounded=0;whiteSpace=wrap;html=1;fillColor=#663300;" parent="1" vertex="1">
                    <mxGeometry x="320" y="-130" width="80" height="130" as="geometry"/>
                </mxCell>
                <mxCell id="91" value="RTE" style="rounded=0;whiteSpace=wrap;html=1;fillColor=#e51400;strokeColor=#B20000;fontColor=#ffffff;" parent="1" vertex="1">
                    <mxGeometry x="80" y="-280" width="400" height="40" as="geometry"/>
                </mxCell>
            </root>
        </mxGraphModel>
    </diagram>
    <diagram id="dCYrUzpP0h1U5rgmp7rN" name="Page-3">
        <mxGraphModel dx="1053" dy="1030" grid="1" gridSize="10" guides="1" tooltips="1" connect="1" arrows="1" fold="1" page="1" pageScale="1" pageWidth="827" pageHeight="1169" math="0" shadow="0">
            <root>
                <mxCell id="gu_V6eO_BE_0CGy3vbDG-0"/>
                <mxCell id="gu_V6eO_BE_0CGy3vbDG-1" parent="gu_V6eO_BE_0CGy3vbDG-0"/>
                <mxCell id="gu_V6eO_BE_0CGy3vbDG-20" style="edgeStyle=orthogonalEdgeStyle;rounded=0;orthogonalLoop=1;jettySize=auto;html=1;exitX=0.5;exitY=1;exitDx=0;exitDy=0;entryX=0.5;entryY=0;entryDx=0;entryDy=0;fontSize=18;fontColor=#FFFFFF;strokeColor=#00335D;startArrow=classic;startFill=1;" parent="gu_V6eO_BE_0CGy3vbDG-1" source="gu_V6eO_BE_0CGy3vbDG-2" target="gu_V6eO_BE_0CGy3vbDG-3" edge="1">
                    <mxGeometry relative="1" as="geometry"/>
                </mxCell>
                <mxCell id="gu_V6eO_BE_0CGy3vbDG-2" value="&lt;font style=&quot;font-size: 22px&quot; color=&quot;#000000&quot;&gt;μc&lt;/font&gt;" style="rounded=0;whiteSpace=wrap;html=1;fontSize=18;fontColor=#FFFFFF;strokeColor=#000000;fillColor=#F2F2F2;" parent="gu_V6eO_BE_0CGy3vbDG-1" vertex="1">
                    <mxGeometry x="260" y="240" width="360" height="40" as="geometry"/>
                </mxCell>
                <mxCell id="gu_V6eO_BE_0CGy3vbDG-3" value="" style="rounded=1;whiteSpace=wrap;html=1;fontSize=18;fontColor=#FFFFFF;fillColor=#f2f2f2;strokeColor=#000000;" parent="gu_V6eO_BE_0CGy3vbDG-1" vertex="1">
                    <mxGeometry x="260" y="320" width="360" height="180" as="geometry"/>
                </mxCell>
                <mxCell id="gu_V6eO_BE_0CGy3vbDG-4" value="PHY" style="rounded=0;whiteSpace=wrap;html=1;fontSize=18;fillColor=none;strokeWidth=1;fontColor=#000000;strokeColor=#000000;" parent="gu_V6eO_BE_0CGy3vbDG-1" vertex="1">
                    <mxGeometry x="280" y="400" width="70" height="60" as="geometry"/>
                </mxCell>
                <mxCell id="gu_V6eO_BE_0CGy3vbDG-17" style="edgeStyle=orthogonalEdgeStyle;rounded=0;orthogonalLoop=1;jettySize=auto;html=1;exitX=0.5;exitY=1;exitDx=0;exitDy=0;entryX=0.5;entryY=0;entryDx=0;entryDy=0;fontSize=18;fontColor=#FFFFFF;strokeColor=#00335D;startArrow=classic;startFill=1;" parent="gu_V6eO_BE_0CGy3vbDG-1" source="gu_V6eO_BE_0CGy3vbDG-5" target="gu_V6eO_BE_0CGy3vbDG-13" edge="1">
                    <mxGeometry relative="1" as="geometry"/>
                </mxCell>
                <mxCell id="gu_V6eO_BE_0CGy3vbDG-5" value="PHY" style="rounded=0;whiteSpace=wrap;html=1;fontSize=18;strokeWidth=1;fillColor=none;fontColor=#000000;strokeColor=#000000;" parent="gu_V6eO_BE_0CGy3vbDG-1" vertex="1">
                    <mxGeometry x="364" y="400" width="70" height="60" as="geometry"/>
                </mxCell>
                <mxCell id="gu_V6eO_BE_0CGy3vbDG-18" style="edgeStyle=orthogonalEdgeStyle;rounded=0;orthogonalLoop=1;jettySize=auto;html=1;exitX=0.5;exitY=1;exitDx=0;exitDy=0;entryX=0.5;entryY=0;entryDx=0;entryDy=0;fontSize=18;fontColor=#FFFFFF;strokeColor=#00335d;startArrow=classic;startFill=1;" parent="gu_V6eO_BE_0CGy3vbDG-1" source="gu_V6eO_BE_0CGy3vbDG-6" target="gu_V6eO_BE_0CGy3vbDG-14" edge="1">
                    <mxGeometry relative="1" as="geometry"/>
                </mxCell>
                <mxCell id="gu_V6eO_BE_0CGy3vbDG-6" value="PHY" style="rounded=0;whiteSpace=wrap;html=1;fontSize=18;strokeWidth=1;fillColor=none;fontColor=#000000;strokeColor=#000000;" parent="gu_V6eO_BE_0CGy3vbDG-1" vertex="1">
                    <mxGeometry x="450" y="400" width="70" height="60" as="geometry"/>
                </mxCell>
                <mxCell id="gu_V6eO_BE_0CGy3vbDG-19" style="edgeStyle=orthogonalEdgeStyle;rounded=0;orthogonalLoop=1;jettySize=auto;html=1;exitX=0.5;exitY=1;exitDx=0;exitDy=0;entryX=0.5;entryY=0;entryDx=0;entryDy=0;fontSize=18;fontColor=#FFFFFF;strokeColor=#00335d;startArrow=classic;startFill=1;" parent="gu_V6eO_BE_0CGy3vbDG-1" source="gu_V6eO_BE_0CGy3vbDG-7" target="gu_V6eO_BE_0CGy3vbDG-15" edge="1">
                    <mxGeometry relative="1" as="geometry"/>
                </mxCell>
                <mxCell id="gu_V6eO_BE_0CGy3vbDG-7" value="PHY" style="rounded=0;whiteSpace=wrap;html=1;fontSize=18;strokeWidth=1;fillColor=none;fontColor=#000000;strokeColor=#000000;" parent="gu_V6eO_BE_0CGy3vbDG-1" vertex="1">
                    <mxGeometry x="530" y="400" width="70" height="60" as="geometry"/>
                </mxCell>
                <mxCell id="gu_V6eO_BE_0CGy3vbDG-9" value="" style="rounded=0;whiteSpace=wrap;html=1;fontSize=18;fontColor=#FFFFFF;fillColor=none;strokeColor=#000000;" parent="gu_V6eO_BE_0CGy3vbDG-1" vertex="1">
                    <mxGeometry x="307.5" y="490" width="15" height="10" as="geometry"/>
                </mxCell>
                <mxCell id="gu_V6eO_BE_0CGy3vbDG-13" value="" style="rounded=0;whiteSpace=wrap;html=1;fontSize=18;fontColor=#FFFFFF;fillColor=none;strokeColor=#000000;" parent="gu_V6eO_BE_0CGy3vbDG-1" vertex="1">
                    <mxGeometry x="391.5" y="490" width="15" height="10" as="geometry"/>
                </mxCell>
                <mxCell id="gu_V6eO_BE_0CGy3vbDG-14" value="" style="rounded=0;whiteSpace=wrap;html=1;fontSize=18;fontColor=#FFFFFF;fillColor=none;strokeColor=#000000;" parent="gu_V6eO_BE_0CGy3vbDG-1" vertex="1">
                    <mxGeometry x="477.5" y="490" width="15" height="10" as="geometry"/>
                </mxCell>
                <mxCell id="gu_V6eO_BE_0CGy3vbDG-15" value="" style="rounded=0;whiteSpace=wrap;html=1;fontSize=18;fontColor=#FFFFFF;fillColor=none;strokeColor=#000000;" parent="gu_V6eO_BE_0CGy3vbDG-1" vertex="1">
                    <mxGeometry x="557.5" y="490" width="15" height="10" as="geometry"/>
                </mxCell>
                <mxCell id="gu_V6eO_BE_0CGy3vbDG-16" value="" style="endArrow=classic;html=1;fontSize=18;fontColor=#FFFFFF;exitX=0.5;exitY=1;exitDx=0;exitDy=0;entryX=0.5;entryY=0;entryDx=0;entryDy=0;strokeColor=#00335d;startArrow=classic;startFill=1;" parent="gu_V6eO_BE_0CGy3vbDG-1" source="gu_V6eO_BE_0CGy3vbDG-4" target="gu_V6eO_BE_0CGy3vbDG-9" edge="1">
                    <mxGeometry width="50" height="50" relative="1" as="geometry">
                        <mxPoint x="350" y="480" as="sourcePoint"/>
                        <mxPoint x="400" y="430" as="targetPoint"/>
                    </mxGeometry>
                </mxCell>
                <mxCell id="gu_V6eO_BE_0CGy3vbDG-21" value="&lt;font color=&quot;#000000&quot;&gt;MII&lt;/font&gt;" style="text;html=1;align=center;verticalAlign=middle;resizable=0;points=[];autosize=1;strokeColor=none;fontSize=18;fontColor=#FFFFFF;" parent="gu_V6eO_BE_0CGy3vbDG-1" vertex="1">
                    <mxGeometry x="394" y="290" width="40" height="30" as="geometry"/>
                </mxCell>
                <mxCell id="gu_V6eO_BE_0CGy3vbDG-22" value="SMI" style="text;html=1;align=center;verticalAlign=middle;resizable=0;points=[];autosize=1;strokeColor=none;fontSize=18;fontColor=#000000;" parent="gu_V6eO_BE_0CGy3vbDG-1" vertex="1">
                    <mxGeometry x="442.5" y="290" width="50" height="30" as="geometry"/>
                </mxCell>
                <mxCell id="gu_V6eO_BE_0CGy3vbDG-23" value="&lt;font color=&quot;#000000&quot;&gt;Switch&lt;/font&gt;" style="text;html=1;strokeColor=none;fillColor=none;align=center;verticalAlign=middle;whiteSpace=wrap;rounded=0;fontSize=18;fontColor=#FFFFFF;" parent="gu_V6eO_BE_0CGy3vbDG-1" vertex="1">
                    <mxGeometry x="420" y="340" width="40" height="20" as="geometry"/>
                </mxCell>
            </root>
        </mxGraphModel>
    </diagram>
    <diagram id="83t8VbFyL7Fq12-67B8P" name="第 4 页">
        <mxGraphModel dx="1053" dy="1030" grid="1" gridSize="10" guides="1" tooltips="1" connect="1" arrows="1" fold="1" page="1" pageScale="1" pageWidth="827" pageHeight="1169" math="0" shadow="0">
            <root>
                <mxCell id="EmHXCR68mS4s2_GKmXk_-0"/>
                <mxCell id="EmHXCR68mS4s2_GKmXk_-1" parent="EmHXCR68mS4s2_GKmXk_-0"/>
                <mxCell id="EmHXCR68mS4s2_GKmXk_-3" value="&lt;font style=&quot;font-size: 15px&quot; color=&quot;#000000&quot;&gt;GW&lt;/font&gt;" style="rounded=0;whiteSpace=wrap;html=1;fontSize=18;fontColor=#FFFFFF;strokeColor=#000000;fillColor=#F2F2F2;" parent="EmHXCR68mS4s2_GKmXk_-1" vertex="1">
                    <mxGeometry x="555" y="180" width="60" height="40" as="geometry"/>
                </mxCell>
                <mxCell id="EmHXCR68mS4s2_GKmXk_-4" value="&lt;font color=&quot;#000033&quot;&gt;Switch A&lt;/font&gt;" style="rounded=1;whiteSpace=wrap;html=1;fontSize=18;fontColor=#FFFFFF;fillColor=#f2f2f2;strokeColor=#000000;" parent="EmHXCR68mS4s2_GKmXk_-1" vertex="1">
                    <mxGeometry x="240" y="260" width="420" height="240" as="geometry"/>
                </mxCell>
                <mxCell id="EmHXCR68mS4s2_GKmXk_-5" value="Port1" style="rounded=0;whiteSpace=wrap;html=1;fontSize=18;fillColor=none;strokeWidth=1;fontColor=#000000;strokeColor=#000000;" parent="EmHXCR68mS4s2_GKmXk_-1" vertex="1">
                    <mxGeometry x="280" y="400" width="70" height="60" as="geometry"/>
                </mxCell>
                <mxCell id="EmHXCR68mS4s2_GKmXk_-7" value="Port2" style="rounded=0;whiteSpace=wrap;html=1;fontSize=18;strokeWidth=1;fillColor=none;fontColor=#000000;strokeColor=#000000;" parent="EmHXCR68mS4s2_GKmXk_-1" vertex="1">
                    <mxGeometry x="370" y="400" width="70" height="60" as="geometry"/>
                </mxCell>
                <mxCell id="EmHXCR68mS4s2_GKmXk_-9" value="&lt;span&gt;Port3&lt;/span&gt;" style="rounded=0;whiteSpace=wrap;html=1;fontSize=18;strokeWidth=1;fillColor=none;fontColor=#000000;strokeColor=#000000;" parent="EmHXCR68mS4s2_GKmXk_-1" vertex="1">
                    <mxGeometry x="460" y="400" width="70" height="60" as="geometry"/>
                </mxCell>
                <mxCell id="EmHXCR68mS4s2_GKmXk_-11" value="Port4" style="rounded=0;whiteSpace=wrap;html=1;fontSize=18;strokeWidth=1;fillColor=none;fontColor=#000000;strokeColor=#000000;" parent="EmHXCR68mS4s2_GKmXk_-1" vertex="1">
                    <mxGeometry x="550" y="400" width="70" height="60" as="geometry"/>
                </mxCell>
                <mxCell id="EmHXCR68mS4s2_GKmXk_-12" value="" style="rounded=0;whiteSpace=wrap;html=1;fontSize=18;fontColor=#FFFFFF;fillColor=none;strokeColor=#000000;" parent="EmHXCR68mS4s2_GKmXk_-1" vertex="1">
                    <mxGeometry x="307.5" y="490" width="15" height="10" as="geometry"/>
                </mxCell>
                <mxCell id="EmHXCR68mS4s2_GKmXk_-13" value="" style="rounded=0;whiteSpace=wrap;html=1;fontSize=18;fontColor=#FFFFFF;fillColor=none;strokeColor=#000000;" parent="EmHXCR68mS4s2_GKmXk_-1" vertex="1">
                    <mxGeometry x="397.5" y="490" width="15" height="10" as="geometry"/>
                </mxCell>
                <mxCell id="EmHXCR68mS4s2_GKmXk_-14" value="" style="rounded=0;whiteSpace=wrap;html=1;fontSize=18;fontColor=#FFFFFF;fillColor=none;strokeColor=#000000;" parent="EmHXCR68mS4s2_GKmXk_-1" vertex="1">
                    <mxGeometry x="487.5" y="490" width="15" height="10" as="geometry"/>
                </mxCell>
                <mxCell id="EmHXCR68mS4s2_GKmXk_-15" value="" style="rounded=0;whiteSpace=wrap;html=1;fontSize=18;fontColor=#FFFFFF;fillColor=none;strokeColor=#000000;" parent="EmHXCR68mS4s2_GKmXk_-1" vertex="1">
                    <mxGeometry x="577.5" y="490" width="15" height="10" as="geometry"/>
                </mxCell>
                <mxCell id="EmHXCR68mS4s2_GKmXk_-20" value="Port5" style="rounded=0;whiteSpace=wrap;html=1;fontSize=18;fillColor=none;strokeWidth=1;fontColor=#000000;strokeColor=#000000;" parent="EmHXCR68mS4s2_GKmXk_-1" vertex="1">
                    <mxGeometry x="280" y="300" width="70" height="60" as="geometry"/>
                </mxCell>
                <mxCell id="EmHXCR68mS4s2_GKmXk_-21" value="" style="rounded=0;whiteSpace=wrap;html=1;fontSize=18;fontColor=#FFFFFF;fillColor=none;strokeColor=#000000;" parent="EmHXCR68mS4s2_GKmXk_-1" vertex="1">
                    <mxGeometry x="307.5" y="260" width="15" height="10" as="geometry"/>
                </mxCell>
                <mxCell id="EmHXCR68mS4s2_GKmXk_-25" value="Por6" style="rounded=0;whiteSpace=wrap;html=1;fontSize=18;fillColor=none;strokeWidth=1;fontColor=#000000;strokeColor=#000000;" parent="EmHXCR68mS4s2_GKmXk_-1" vertex="1">
                    <mxGeometry x="370" y="300" width="70" height="60" as="geometry"/>
                </mxCell>
                <mxCell id="EmHXCR68mS4s2_GKmXk_-26" value="" style="rounded=0;whiteSpace=wrap;html=1;fontSize=18;fontColor=#FFFFFF;fillColor=none;strokeColor=#000000;" parent="EmHXCR68mS4s2_GKmXk_-1" vertex="1">
                    <mxGeometry x="397.5" y="260" width="15" height="10" as="geometry"/>
                </mxCell>
                <mxCell id="EmHXCR68mS4s2_GKmXk_-28" value="Port7" style="rounded=0;whiteSpace=wrap;html=1;fontSize=18;fillColor=none;strokeWidth=1;fontColor=#000000;strokeColor=#000000;" parent="EmHXCR68mS4s2_GKmXk_-1" vertex="1">
                    <mxGeometry x="460" y="300" width="70" height="60" as="geometry"/>
                </mxCell>
                <mxCell id="EmHXCR68mS4s2_GKmXk_-29" value="" style="rounded=0;whiteSpace=wrap;html=1;fontSize=18;fontColor=#FFFFFF;fillColor=none;strokeColor=#000000;" parent="EmHXCR68mS4s2_GKmXk_-1" vertex="1">
                    <mxGeometry x="487.5" y="260" width="15" height="10" as="geometry"/>
                </mxCell>
                <mxCell id="EmHXCR68mS4s2_GKmXk_-31" value="Port8" style="rounded=0;whiteSpace=wrap;html=1;fontSize=18;fillColor=none;strokeWidth=1;fontColor=#000000;strokeColor=#000000;" parent="EmHXCR68mS4s2_GKmXk_-1" vertex="1">
                    <mxGeometry x="550" y="300" width="70" height="60" as="geometry"/>
                </mxCell>
                <mxCell id="EmHXCR68mS4s2_GKmXk_-32" value="" style="rounded=0;whiteSpace=wrap;html=1;fontSize=18;fontColor=#FFFFFF;fillColor=none;strokeColor=#000000;" parent="EmHXCR68mS4s2_GKmXk_-1" vertex="1">
                    <mxGeometry x="577.5" y="260" width="15" height="10" as="geometry"/>
                </mxCell>
                <mxCell id="EmHXCR68mS4s2_GKmXk_-34" value="&lt;font color=&quot;#000000&quot; style=&quot;font-size: 15px&quot;&gt;SwitchB&lt;/font&gt;" style="rounded=0;whiteSpace=wrap;html=1;fontSize=18;fontColor=#FFFFFF;strokeColor=#000000;fillColor=#F2F2F2;" parent="EmHXCR68mS4s2_GKmXk_-1" vertex="1">
                    <mxGeometry x="465" y="180" width="60" height="40" as="geometry"/>
                </mxCell>
                <mxCell id="EmHXCR68mS4s2_GKmXk_-35" value="&lt;font style=&quot;font-size: 15px&quot; color=&quot;#000000&quot;&gt;EDS&lt;/font&gt;" style="rounded=0;whiteSpace=wrap;html=1;fontSize=18;fontColor=#FFFFFF;strokeColor=#000000;fillColor=#F2F2F2;" parent="EmHXCR68mS4s2_GKmXk_-1" vertex="1">
                    <mxGeometry x="375" y="180" width="60" height="40" as="geometry"/>
                </mxCell>
                <mxCell id="EmHXCR68mS4s2_GKmXk_-36" value="&lt;font style=&quot;font-size: 15px&quot; color=&quot;#000000&quot;&gt;LADS&lt;/font&gt;" style="rounded=0;whiteSpace=wrap;html=1;fontSize=18;fontColor=#FFFFFF;strokeColor=#000000;fillColor=#F2F2F2;" parent="EmHXCR68mS4s2_GKmXk_-1" vertex="1">
                    <mxGeometry x="285" y="180" width="60" height="40" as="geometry"/>
                </mxCell>
                <mxCell id="EmHXCR68mS4s2_GKmXk_-37" value="&lt;font style=&quot;font-size: 15px&quot; color=&quot;#000000&quot;&gt;FVCM&lt;/font&gt;" style="rounded=0;whiteSpace=wrap;html=1;fontSize=18;fontColor=#FFFFFF;strokeColor=#000000;fillColor=#F2F2F2;" parent="EmHXCR68mS4s2_GKmXk_-1" vertex="1">
                    <mxGeometry x="555" y="540" width="60" height="40" as="geometry"/>
                </mxCell>
                <mxCell id="EmHXCR68mS4s2_GKmXk_-38" value="&lt;font style=&quot;font-size: 15px&quot; color=&quot;#000000&quot;&gt;ICM&lt;/font&gt;" style="rounded=0;whiteSpace=wrap;html=1;fontSize=18;fontColor=#FFFFFF;strokeColor=#000000;fillColor=#F2F2F2;" parent="EmHXCR68mS4s2_GKmXk_-1" vertex="1">
                    <mxGeometry x="465" y="540" width="60" height="40" as="geometry"/>
                </mxCell>
                <mxCell id="EmHXCR68mS4s2_GKmXk_-39" value="&lt;font style=&quot;font-size: 15px&quot; color=&quot;#000000&quot;&gt;Tbox&lt;/font&gt;" style="rounded=0;whiteSpace=wrap;html=1;fontSize=18;fontColor=#FFFFFF;strokeColor=#000000;fillColor=#F2F2F2;" parent="EmHXCR68mS4s2_GKmXk_-1" vertex="1">
                    <mxGeometry x="375" y="540" width="60" height="40" as="geometry"/>
                </mxCell>
                <mxCell id="EmHXCR68mS4s2_GKmXk_-40" value="&lt;font style=&quot;font-size: 15px&quot;&gt;Rev&lt;/font&gt;" style="rounded=0;whiteSpace=wrap;html=1;fontSize=18;fontColor=#FFFFFF;strokeColor=#000000;fillColor=#F2F2F2;" parent="EmHXCR68mS4s2_GKmXk_-1" vertex="1">
                    <mxGeometry x="285" y="540" width="60" height="40" as="geometry"/>
                </mxCell>
                <mxCell id="EmHXCR68mS4s2_GKmXk_-41" style="edgeStyle=orthogonalEdgeStyle;rounded=0;orthogonalLoop=1;jettySize=auto;html=1;exitX=0.5;exitY=1;exitDx=0;exitDy=0;entryX=0.5;entryY=0;entryDx=0;entryDy=0;fontSize=18;fontColor=#FFFFFF;strokeColor=#00335D;startArrow=classic;startFill=1;" parent="EmHXCR68mS4s2_GKmXk_-1" edge="1">
                    <mxGeometry relative="1" as="geometry">
                        <mxPoint x="494.83" y="220" as="sourcePoint"/>
                        <mxPoint x="494.83" y="260" as="targetPoint"/>
                    </mxGeometry>
                </mxCell>
                <mxCell id="EmHXCR68mS4s2_GKmXk_-42" style="edgeStyle=orthogonalEdgeStyle;rounded=0;orthogonalLoop=1;jettySize=auto;html=1;exitX=0.5;exitY=1;exitDx=0;exitDy=0;entryX=0.5;entryY=0;entryDx=0;entryDy=0;fontSize=18;fontColor=#FFFFFF;strokeColor=#00335D;startArrow=classic;startFill=1;" parent="EmHXCR68mS4s2_GKmXk_-1" edge="1">
                    <mxGeometry relative="1" as="geometry">
                        <mxPoint x="404.8299999999999" y="220" as="sourcePoint"/>
                        <mxPoint x="404.8299999999999" y="260" as="targetPoint"/>
                    </mxGeometry>
                </mxCell>
                <mxCell id="EmHXCR68mS4s2_GKmXk_-43" style="edgeStyle=orthogonalEdgeStyle;rounded=0;orthogonalLoop=1;jettySize=auto;html=1;exitX=0.5;exitY=1;exitDx=0;exitDy=0;entryX=0.5;entryY=0;entryDx=0;entryDy=0;fontSize=18;fontColor=#FFFFFF;strokeColor=#00335D;startArrow=classic;startFill=1;" parent="EmHXCR68mS4s2_GKmXk_-1" edge="1">
                    <mxGeometry relative="1" as="geometry">
                        <mxPoint x="314.8299999999999" y="220" as="sourcePoint"/>
                        <mxPoint x="314.8299999999999" y="260" as="targetPoint"/>
                        <Array as="points">
                            <mxPoint x="314.83" y="230"/>
                            <mxPoint x="314.83" y="230"/>
                        </Array>
                    </mxGeometry>
                </mxCell>
                <mxCell id="EmHXCR68mS4s2_GKmXk_-44" style="edgeStyle=orthogonalEdgeStyle;rounded=0;orthogonalLoop=1;jettySize=auto;html=1;exitX=0.5;exitY=1;exitDx=0;exitDy=0;entryX=0.5;entryY=0;entryDx=0;entryDy=0;fontSize=18;fontColor=#FFFFFF;strokeColor=#00335D;startArrow=classic;startFill=1;" parent="EmHXCR68mS4s2_GKmXk_-1" edge="1">
                    <mxGeometry relative="1" as="geometry">
                        <mxPoint x="584.83" y="500" as="sourcePoint"/>
                        <mxPoint x="584.83" y="540" as="targetPoint"/>
                    </mxGeometry>
                </mxCell>
                <mxCell id="EmHXCR68mS4s2_GKmXk_-45" style="edgeStyle=orthogonalEdgeStyle;rounded=0;orthogonalLoop=1;jettySize=auto;html=1;exitX=0.5;exitY=1;exitDx=0;exitDy=0;entryX=0.5;entryY=0;entryDx=0;entryDy=0;fontSize=18;fontColor=#FFFFFF;strokeColor=#00335D;startArrow=classic;startFill=1;" parent="EmHXCR68mS4s2_GKmXk_-1" edge="1">
                    <mxGeometry relative="1" as="geometry">
                        <mxPoint x="494.6599999999999" y="500" as="sourcePoint"/>
                        <mxPoint x="494.6599999999999" y="540" as="targetPoint"/>
                    </mxGeometry>
                </mxCell>
                <mxCell id="EmHXCR68mS4s2_GKmXk_-46" style="edgeStyle=orthogonalEdgeStyle;rounded=0;orthogonalLoop=1;jettySize=auto;html=1;exitX=0.5;exitY=1;exitDx=0;exitDy=0;entryX=0.5;entryY=0;entryDx=0;entryDy=0;fontSize=18;fontColor=#FFFFFF;strokeColor=#00335D;startArrow=classic;startFill=1;" parent="EmHXCR68mS4s2_GKmXk_-1" edge="1">
                    <mxGeometry relative="1" as="geometry">
                        <mxPoint x="404.6599999999999" y="500" as="sourcePoint"/>
                        <mxPoint x="404.6599999999999" y="540" as="targetPoint"/>
                    </mxGeometry>
                </mxCell>
                <mxCell id="EmHXCR68mS4s2_GKmXk_-47" style="edgeStyle=orthogonalEdgeStyle;rounded=0;orthogonalLoop=1;jettySize=auto;html=1;exitX=0.5;exitY=1;exitDx=0;exitDy=0;entryX=0.5;entryY=0;entryDx=0;entryDy=0;fontSize=18;fontColor=#FFFFFF;strokeColor=#00335D;startArrow=classic;startFill=1;" parent="EmHXCR68mS4s2_GKmXk_-1" edge="1">
                    <mxGeometry relative="1" as="geometry">
                        <mxPoint x="314.6599999999999" y="500" as="sourcePoint"/>
                        <mxPoint x="314.6599999999999" y="540" as="targetPoint"/>
                        <Array as="points">
                            <mxPoint x="314.65999999999997" y="510"/>
                            <mxPoint x="314.65999999999997" y="510"/>
                        </Array>
                    </mxGeometry>
                </mxCell>
                <mxCell id="EmHXCR68mS4s2_GKmXk_-54" value="" style="endArrow=classic;html=1;exitX=0.568;exitY=0.99;exitDx=0;exitDy=0;exitPerimeter=0;strokeColor=#00335D;" parent="EmHXCR68mS4s2_GKmXk_-1" edge="1">
                    <mxGeometry width="50" height="50" relative="1" as="geometry">
                        <mxPoint x="588.93" y="270.71999999999997" as="sourcePoint"/>
                        <mxPoint x="589" y="300" as="targetPoint"/>
                    </mxGeometry>
                </mxCell>
                <mxCell id="EmHXCR68mS4s2_GKmXk_-55" value="" style="endArrow=classic;html=1;entryX=0.437;entryY=0.972;entryDx=0;entryDy=0;entryPerimeter=0;strokeColor=#00335D;" parent="EmHXCR68mS4s2_GKmXk_-1" edge="1">
                    <mxGeometry width="50" height="50" relative="1" as="geometry">
                        <mxPoint x="581" y="300" as="sourcePoint"/>
                        <mxPoint x="581.0699999999999" y="270.00000000000006" as="targetPoint"/>
                    </mxGeometry>
                </mxCell>
                <mxCell id="EmHXCR68mS4s2_GKmXk_-56" style="edgeStyle=orthogonalEdgeStyle;rounded=0;orthogonalLoop=1;jettySize=auto;html=1;exitX=0.5;exitY=1;exitDx=0;exitDy=0;entryX=0.5;entryY=0;entryDx=0;entryDy=0;fontSize=18;fontColor=#FFFFFF;strokeColor=#00335D;startArrow=classic;startFill=1;" parent="EmHXCR68mS4s2_GKmXk_-1" edge="1">
                    <mxGeometry relative="1" as="geometry">
                        <mxPoint x="584.8799999999999" y="220" as="sourcePoint"/>
                        <mxPoint x="584.8799999999999" y="260" as="targetPoint"/>
                    </mxGeometry>
                </mxCell>
                <mxCell id="EmHXCR68mS4s2_GKmXk_-57" value="" style="endArrow=classic;html=1;exitX=0.568;exitY=0.99;exitDx=0;exitDy=0;exitPerimeter=0;strokeColor=#00335D;" parent="EmHXCR68mS4s2_GKmXk_-1" edge="1">
                    <mxGeometry width="50" height="50" relative="1" as="geometry">
                        <mxPoint x="498.79999999999995" y="270.72" as="sourcePoint"/>
                        <mxPoint x="498.87" y="300" as="targetPoint"/>
                    </mxGeometry>
                </mxCell>
                <mxCell id="EmHXCR68mS4s2_GKmXk_-58" value="" style="endArrow=classic;html=1;entryX=0.437;entryY=0.972;entryDx=0;entryDy=0;entryPerimeter=0;strokeColor=#00335D;" parent="EmHXCR68mS4s2_GKmXk_-1" edge="1">
                    <mxGeometry width="50" height="50" relative="1" as="geometry">
                        <mxPoint x="490.87" y="300" as="sourcePoint"/>
                        <mxPoint x="490.94000000000005" y="270" as="targetPoint"/>
                    </mxGeometry>
                </mxCell>
                <mxCell id="EmHXCR68mS4s2_GKmXk_-59" value="" style="endArrow=classic;html=1;exitX=0.568;exitY=0.99;exitDx=0;exitDy=0;exitPerimeter=0;strokeColor=#00335D;" parent="EmHXCR68mS4s2_GKmXk_-1" edge="1">
                    <mxGeometry width="50" height="50" relative="1" as="geometry">
                        <mxPoint x="408.79999999999995" y="270.72" as="sourcePoint"/>
                        <mxPoint x="408.87" y="300" as="targetPoint"/>
                    </mxGeometry>
                </mxCell>
                <mxCell id="EmHXCR68mS4s2_GKmXk_-60" value="" style="endArrow=classic;html=1;entryX=0.437;entryY=0.972;entryDx=0;entryDy=0;entryPerimeter=0;strokeColor=#00335D;" parent="EmHXCR68mS4s2_GKmXk_-1" edge="1">
                    <mxGeometry width="50" height="50" relative="1" as="geometry">
                        <mxPoint x="400.87" y="300" as="sourcePoint"/>
                        <mxPoint x="400.94000000000005" y="270" as="targetPoint"/>
                    </mxGeometry>
                </mxCell>
                <mxCell id="EmHXCR68mS4s2_GKmXk_-61" value="" style="endArrow=classic;html=1;exitX=0.568;exitY=0.99;exitDx=0;exitDy=0;exitPerimeter=0;strokeColor=#00335D;" parent="EmHXCR68mS4s2_GKmXk_-1" edge="1">
                    <mxGeometry width="50" height="50" relative="1" as="geometry">
                        <mxPoint x="318.79999999999995" y="270.72" as="sourcePoint"/>
                        <mxPoint x="318.87" y="300" as="targetPoint"/>
                    </mxGeometry>
                </mxCell>
                <mxCell id="EmHXCR68mS4s2_GKmXk_-62" value="" style="endArrow=classic;html=1;entryX=0.437;entryY=0.972;entryDx=0;entryDy=0;entryPerimeter=0;strokeColor=#00335D;" parent="EmHXCR68mS4s2_GKmXk_-1" edge="1">
                    <mxGeometry width="50" height="50" relative="1" as="geometry">
                        <mxPoint x="310.87" y="300" as="sourcePoint"/>
                        <mxPoint x="310.94000000000005" y="270" as="targetPoint"/>
                    </mxGeometry>
                </mxCell>
                <mxCell id="EmHXCR68mS4s2_GKmXk_-63" value="" style="endArrow=classic;html=1;exitX=0.568;exitY=0.99;exitDx=0;exitDy=0;exitPerimeter=0;strokeColor=#00335D;" parent="EmHXCR68mS4s2_GKmXk_-1" edge="1">
                    <mxGeometry width="50" height="50" relative="1" as="geometry">
                        <mxPoint x="588.79" y="460.72" as="sourcePoint"/>
                        <mxPoint x="588.8600000000001" y="490" as="targetPoint"/>
                    </mxGeometry>
                </mxCell>
                <mxCell id="EmHXCR68mS4s2_GKmXk_-64" value="" style="endArrow=classic;html=1;entryX=0.437;entryY=0.972;entryDx=0;entryDy=0;entryPerimeter=0;strokeColor=#00335D;" parent="EmHXCR68mS4s2_GKmXk_-1" edge="1">
                    <mxGeometry width="50" height="50" relative="1" as="geometry">
                        <mxPoint x="580.86" y="490" as="sourcePoint"/>
                        <mxPoint x="580.93" y="460" as="targetPoint"/>
                    </mxGeometry>
                </mxCell>
                <mxCell id="EmHXCR68mS4s2_GKmXk_-65" value="" style="endArrow=classic;html=1;exitX=0.568;exitY=0.99;exitDx=0;exitDy=0;exitPerimeter=0;strokeColor=#00335D;" parent="EmHXCR68mS4s2_GKmXk_-1" edge="1">
                    <mxGeometry width="50" height="50" relative="1" as="geometry">
                        <mxPoint x="498.65999999999997" y="460.72" as="sourcePoint"/>
                        <mxPoint x="498.73" y="490" as="targetPoint"/>
                    </mxGeometry>
                </mxCell>
                <mxCell id="EmHXCR68mS4s2_GKmXk_-66" value="" style="endArrow=classic;html=1;entryX=0.437;entryY=0.972;entryDx=0;entryDy=0;entryPerimeter=0;strokeColor=#00335D;" parent="EmHXCR68mS4s2_GKmXk_-1" edge="1">
                    <mxGeometry width="50" height="50" relative="1" as="geometry">
                        <mxPoint x="490.73" y="490" as="sourcePoint"/>
                        <mxPoint x="490.80000000000007" y="460" as="targetPoint"/>
                    </mxGeometry>
                </mxCell>
                <mxCell id="EmHXCR68mS4s2_GKmXk_-67" value="" style="endArrow=classic;html=1;exitX=0.568;exitY=0.99;exitDx=0;exitDy=0;exitPerimeter=0;strokeColor=#00335D;" parent="EmHXCR68mS4s2_GKmXk_-1" edge="1">
                    <mxGeometry width="50" height="50" relative="1" as="geometry">
                        <mxPoint x="408.65999999999997" y="460.72" as="sourcePoint"/>
                        <mxPoint x="408.73" y="490" as="targetPoint"/>
                    </mxGeometry>
                </mxCell>
                <mxCell id="EmHXCR68mS4s2_GKmXk_-68" value="" style="endArrow=classic;html=1;entryX=0.437;entryY=0.972;entryDx=0;entryDy=0;entryPerimeter=0;strokeColor=#00335D;" parent="EmHXCR68mS4s2_GKmXk_-1" edge="1">
                    <mxGeometry width="50" height="50" relative="1" as="geometry">
                        <mxPoint x="400.73" y="490" as="sourcePoint"/>
                        <mxPoint x="400.80000000000007" y="460" as="targetPoint"/>
                    </mxGeometry>
                </mxCell>
                <mxCell id="EmHXCR68mS4s2_GKmXk_-69" value="" style="endArrow=classic;html=1;exitX=0.568;exitY=0.99;exitDx=0;exitDy=0;exitPerimeter=0;strokeColor=#00335D;" parent="EmHXCR68mS4s2_GKmXk_-1" edge="1">
                    <mxGeometry width="50" height="50" relative="1" as="geometry">
                        <mxPoint x="318.65999999999997" y="460.72" as="sourcePoint"/>
                        <mxPoint x="318.73" y="490" as="targetPoint"/>
                    </mxGeometry>
                </mxCell>
                <mxCell id="EmHXCR68mS4s2_GKmXk_-70" value="" style="endArrow=classic;html=1;entryX=0.437;entryY=0.972;entryDx=0;entryDy=0;entryPerimeter=0;strokeColor=#00335D;" parent="EmHXCR68mS4s2_GKmXk_-1" edge="1">
                    <mxGeometry width="50" height="50" relative="1" as="geometry">
                        <mxPoint x="310.73" y="490" as="sourcePoint"/>
                        <mxPoint x="310.80000000000007" y="460" as="targetPoint"/>
                    </mxGeometry>
                </mxCell>
                <mxCell id="EmHXCR68mS4s2_GKmXk_-72" value="&lt;font color=&quot;#ff0000&quot;&gt;Ingress&lt;/font&gt;" style="text;html=1;strokeColor=none;fillColor=none;align=center;verticalAlign=middle;whiteSpace=wrap;rounded=0;" parent="EmHXCR68mS4s2_GKmXk_-1" vertex="1">
                    <mxGeometry x="267.5" y="470" width="40" height="20" as="geometry"/>
                </mxCell>
                <mxCell id="EmHXCR68mS4s2_GKmXk_-73" value="&lt;font color=&quot;#ff0000&quot;&gt;Egress&lt;/font&gt;" style="text;html=1;strokeColor=none;fillColor=none;align=center;verticalAlign=middle;whiteSpace=wrap;rounded=0;" parent="EmHXCR68mS4s2_GKmXk_-1" vertex="1">
                    <mxGeometry x="322.5" y="470" width="40" height="20" as="geometry"/>
                </mxCell>
            </root>
        </mxGraphModel>
    </diagram>
    <diagram id="E50CG7lLodHKOlSLW4CR" name="第 5 页">
        <mxGraphModel dx="1053" dy="1030" grid="1" gridSize="10" guides="1" tooltips="1" connect="1" arrows="1" fold="1" page="1" pageScale="1" pageWidth="827" pageHeight="1169" math="0" shadow="0">
            <root>
                <mxCell id="rj76JtiprAM9kb17LVoS-0"/>
                <mxCell id="rj76JtiprAM9kb17LVoS-1" parent="rj76JtiprAM9kb17LVoS-0"/>
                <mxCell id="rj76JtiprAM9kb17LVoS-4" value="" style="rounded=1;whiteSpace=wrap;html=1;fontSize=18;fontColor=#FFFFFF;strokeColor=#000000;fillColor=#B3B3B3;" parent="rj76JtiprAM9kb17LVoS-1" vertex="1">
                    <mxGeometry x="160" y="320" width="360" height="160" as="geometry"/>
                </mxCell>
                <mxCell id="Clul5AJN_ycNa1GeOR-2-9" value="" style="edgeStyle=orthogonalEdgeStyle;html=1;strokeColor=#009900;" parent="rj76JtiprAM9kb17LVoS-1" source="rj76JtiprAM9kb17LVoS-3" target="rj76JtiprAM9kb17LVoS-21" edge="1">
                    <mxGeometry relative="1" as="geometry"/>
                </mxCell>
                <mxCell id="rj76JtiprAM9kb17LVoS-3" value="&lt;font color=&quot;#000000&quot; style=&quot;font-size: 18px&quot;&gt;GW&lt;/font&gt;" style="rounded=0;whiteSpace=wrap;html=1;fontSize=18;fontColor=#FFFFFF;strokeColor=#000000;fillColor=#F2F2F2;" parent="rj76JtiprAM9kb17LVoS-1" vertex="1">
                    <mxGeometry x="290" y="240" width="100" height="40" as="geometry"/>
                </mxCell>
                <mxCell id="rj76JtiprAM9kb17LVoS-12" value="" style="rounded=0;whiteSpace=wrap;html=1;fontSize=18;fontColor=#FFFFFF;fillColor=none;strokeColor=#000000;" parent="rj76JtiprAM9kb17LVoS-1" vertex="1">
                    <mxGeometry x="207.5" y="470" width="15" height="10" as="geometry"/>
                </mxCell>
                <mxCell id="rj76JtiprAM9kb17LVoS-13" value="" style="rounded=0;whiteSpace=wrap;html=1;fontSize=18;fontColor=#FFFFFF;fillColor=none;strokeColor=#000000;" parent="rj76JtiprAM9kb17LVoS-1" vertex="1">
                    <mxGeometry x="291.5" y="470" width="15" height="10" as="geometry"/>
                </mxCell>
                <mxCell id="rj76JtiprAM9kb17LVoS-14" value="" style="rounded=0;whiteSpace=wrap;html=1;fontSize=18;fontColor=#FFFFFF;fillColor=none;strokeColor=#000000;" parent="rj76JtiprAM9kb17LVoS-1" vertex="1">
                    <mxGeometry x="377.5" y="470" width="15" height="10" as="geometry"/>
                </mxCell>
                <mxCell id="rj76JtiprAM9kb17LVoS-15" value="" style="rounded=0;whiteSpace=wrap;html=1;fontSize=18;fontColor=#FFFFFF;fillColor=none;strokeColor=#000000;" parent="rj76JtiprAM9kb17LVoS-1" vertex="1">
                    <mxGeometry x="457.5" y="470" width="15" height="10" as="geometry"/>
                </mxCell>
                <mxCell id="rj76JtiprAM9kb17LVoS-18" value="&lt;font style=&quot;font-size: 14px&quot;&gt;Ethernet&lt;/font&gt;" style="text;html=1;align=center;verticalAlign=middle;resizable=0;points=[];autosize=1;strokeColor=none;fontSize=18;fontColor=#000000;" parent="rj76JtiprAM9kb17LVoS-1" vertex="1">
                    <mxGeometry x="270" y="280" width="70" height="30" as="geometry"/>
                </mxCell>
                <mxCell id="rj76JtiprAM9kb17LVoS-19" value="&lt;font color=&quot;#000000&quot;&gt;Switch&lt;/font&gt;" style="text;html=1;strokeColor=none;fillColor=none;align=center;verticalAlign=middle;whiteSpace=wrap;rounded=0;fontSize=18;fontColor=#FFFFFF;" parent="rj76JtiprAM9kb17LVoS-1" vertex="1">
                    <mxGeometry x="440" y="345" width="40" height="20" as="geometry"/>
                </mxCell>
                <mxCell id="rj76JtiprAM9kb17LVoS-20" value="&lt;font color=&quot;#000000&quot;&gt;Registers&lt;/font&gt;" style="rounded=0;whiteSpace=wrap;html=1;fillColor=#FFFFFF;strokeColor=#2A2A2A;" parent="rj76JtiprAM9kb17LVoS-1" vertex="1">
                    <mxGeometry x="305" y="385" width="70" height="30" as="geometry"/>
                </mxCell>
                <mxCell id="Clul5AJN_ycNa1GeOR-2-8" value="" style="edgeStyle=orthogonalEdgeStyle;html=1;" parent="rj76JtiprAM9kb17LVoS-1" source="rj76JtiprAM9kb17LVoS-21" target="rj76JtiprAM9kb17LVoS-20" edge="1">
                    <mxGeometry relative="1" as="geometry"/>
                </mxCell>
                <mxCell id="rj76JtiprAM9kb17LVoS-21" value="&lt;font color=&quot;#000000&quot;&gt;RMU&lt;/font&gt;" style="rounded=0;whiteSpace=wrap;html=1;fillColor=#FFFFFF;strokeColor=#2A2A2A;" parent="rj76JtiprAM9kb17LVoS-1" vertex="1">
                    <mxGeometry x="305" y="340" width="70" height="30" as="geometry"/>
                </mxCell>
                <mxCell id="Clul5AJN_ycNa1GeOR-2-4" value="" style="endArrow=none;html=1;exitX=1;exitY=0.5;exitDx=0;exitDy=0;strokeColor=#009900;" parent="rj76JtiprAM9kb17LVoS-1" source="rj76JtiprAM9kb17LVoS-3" edge="1">
                    <mxGeometry width="50" height="50" relative="1" as="geometry">
                        <mxPoint x="380" y="400" as="sourcePoint"/>
                        <mxPoint x="410" y="260" as="targetPoint"/>
                    </mxGeometry>
                </mxCell>
                <mxCell id="Clul5AJN_ycNa1GeOR-2-5" value="" style="endArrow=classic;html=1;entryX=1;entryY=0.5;entryDx=0;entryDy=0;strokeColor=#009900;" parent="rj76JtiprAM9kb17LVoS-1" target="rj76JtiprAM9kb17LVoS-20" edge="1">
                    <mxGeometry width="50" height="50" relative="1" as="geometry">
                        <mxPoint x="410" y="400" as="sourcePoint"/>
                        <mxPoint x="430" y="350" as="targetPoint"/>
                    </mxGeometry>
                </mxCell>
                <mxCell id="Clul5AJN_ycNa1GeOR-2-6" value="" style="endArrow=none;html=1;strokeColor=#009900;" parent="rj76JtiprAM9kb17LVoS-1" edge="1">
                    <mxGeometry width="50" height="50" relative="1" as="geometry">
                        <mxPoint x="410" y="400" as="sourcePoint"/>
                        <mxPoint x="410" y="260" as="targetPoint"/>
                    </mxGeometry>
                </mxCell>
                <mxCell id="Clul5AJN_ycNa1GeOR-2-12" value="" style="edgeStyle=orthogonalEdgeStyle;html=1;fillColor=#e51400;strokeColor=#990000;" parent="rj76JtiprAM9kb17LVoS-1" source="Clul5AJN_ycNa1GeOR-2-10" target="Clul5AJN_ycNa1GeOR-2-11" edge="1">
                    <mxGeometry relative="1" as="geometry"/>
                </mxCell>
                <mxCell id="Clul5AJN_ycNa1GeOR-2-10" value="" style="rounded=0;whiteSpace=wrap;html=1;fontSize=18;fontColor=#FFFFFF;strokeColor=#000000;fillColor=#FFFFFF;" parent="rj76JtiprAM9kb17LVoS-1" vertex="1">
                    <mxGeometry x="207.5" y="310" width="15" height="10" as="geometry"/>
                </mxCell>
                <mxCell id="Clul5AJN_ycNa1GeOR-2-11" value="&lt;font color=&quot;#000000&quot;&gt;JTAG&lt;/font&gt;" style="rounded=0;whiteSpace=wrap;html=1;fillColor=#FFFFFF;strokeColor=#2A2A2A;" parent="rj76JtiprAM9kb17LVoS-1" vertex="1">
                    <mxGeometry x="180" y="340" width="70" height="30" as="geometry"/>
                </mxCell>
                <mxCell id="Clul5AJN_ycNa1GeOR-2-13" value="" style="endArrow=classic;html=1;entryX=0;entryY=0.5;entryDx=0;entryDy=0;exitX=0.153;exitY=0.5;exitDx=0;exitDy=0;exitPerimeter=0;fillColor=#e51400;strokeColor=#990000;" parent="rj76JtiprAM9kb17LVoS-1" source="rj76JtiprAM9kb17LVoS-4" target="rj76JtiprAM9kb17LVoS-20" edge="1">
                    <mxGeometry width="50" height="50" relative="1" as="geometry">
                        <mxPoint x="220" y="400" as="sourcePoint"/>
                        <mxPoint x="270" y="290" as="targetPoint"/>
                    </mxGeometry>
                </mxCell>
                <mxCell id="Clul5AJN_ycNa1GeOR-2-15" value="" style="edgeStyle=orthogonalEdgeStyle;html=1;endArrow=none;endFill=0;fillColor=#e51400;strokeColor=#990000;" parent="rj76JtiprAM9kb17LVoS-1" source="Clul5AJN_ycNa1GeOR-2-11" edge="1">
                    <mxGeometry relative="1" as="geometry">
                        <mxPoint x="215" y="370" as="sourcePoint"/>
                        <mxPoint x="215" y="400" as="targetPoint"/>
                    </mxGeometry>
                </mxCell>
                <mxCell id="Clul5AJN_ycNa1GeOR-2-16" value="" style="endArrow=classic;html=1;entryX=0.5;entryY=1;entryDx=0;entryDy=0;strokeColor=#4C0099;startArrow=none;startFill=0;endFill=1;" parent="rj76JtiprAM9kb17LVoS-1" target="rj76JtiprAM9kb17LVoS-20" edge="1">
                    <mxGeometry width="50" height="50" relative="1" as="geometry">
                        <mxPoint x="340" y="440" as="sourcePoint"/>
                        <mxPoint x="330" y="310" as="targetPoint"/>
                    </mxGeometry>
                </mxCell>
                <mxCell id="Clul5AJN_ycNa1GeOR-2-18" value="" style="endArrow=none;html=1;strokeColor=#4C0099;" parent="rj76JtiprAM9kb17LVoS-1" edge="1">
                    <mxGeometry width="50" height="50" relative="1" as="geometry">
                        <mxPoint x="465" y="440" as="sourcePoint"/>
                        <mxPoint x="215" y="440" as="targetPoint"/>
                    </mxGeometry>
                </mxCell>
                <mxCell id="Clul5AJN_ycNa1GeOR-2-19" value="" style="endArrow=none;html=1;exitX=0.5;exitY=0;exitDx=0;exitDy=0;strokeColor=#4C0099;startArrow=classic;startFill=1;" parent="rj76JtiprAM9kb17LVoS-1" source="rj76JtiprAM9kb17LVoS-12" edge="1">
                    <mxGeometry width="50" height="50" relative="1" as="geometry">
                        <mxPoint x="280" y="360" as="sourcePoint"/>
                        <mxPoint x="215" y="440" as="targetPoint"/>
                    </mxGeometry>
                </mxCell>
                <mxCell id="Clul5AJN_ycNa1GeOR-2-22" value="" style="endArrow=classic;html=1;entryX=0.5;entryY=0;entryDx=0;entryDy=0;strokeColor=#4C0099;startFill=0;startArrow=none;endFill=1;" parent="rj76JtiprAM9kb17LVoS-1" target="rj76JtiprAM9kb17LVoS-14" edge="1">
                    <mxGeometry width="50" height="50" relative="1" as="geometry">
                        <mxPoint x="385" y="440" as="sourcePoint"/>
                        <mxPoint x="320" y="300" as="targetPoint"/>
                    </mxGeometry>
                </mxCell>
                <mxCell id="Clul5AJN_ycNa1GeOR-2-23" value="" style="endArrow=classic;html=1;entryX=0.5;entryY=0;entryDx=0;entryDy=0;strokeColor=#4C0099;startFill=0;startArrow=none;endFill=1;" parent="rj76JtiprAM9kb17LVoS-1" target="rj76JtiprAM9kb17LVoS-15" edge="1">
                    <mxGeometry width="50" height="50" relative="1" as="geometry">
                        <mxPoint x="465" y="440" as="sourcePoint"/>
                        <mxPoint x="320" y="300" as="targetPoint"/>
                    </mxGeometry>
                </mxCell>
                <mxCell id="Clul5AJN_ycNa1GeOR-2-24" value="" style="endArrow=none;html=1;exitX=0.5;exitY=0;exitDx=0;exitDy=0;strokeColor=#4C0099;startFill=1;startArrow=classic;" parent="rj76JtiprAM9kb17LVoS-1" source="rj76JtiprAM9kb17LVoS-13" edge="1">
                    <mxGeometry width="50" height="50" relative="1" as="geometry">
                        <mxPoint x="270" y="350" as="sourcePoint"/>
                        <mxPoint x="299" y="440" as="targetPoint"/>
                    </mxGeometry>
                </mxCell>
                <mxCell id="Clul5AJN_ycNa1GeOR-2-25" value="&lt;span style=&quot;font-size: 14px&quot;&gt;JTAG接口&lt;/span&gt;" style="text;html=1;align=center;verticalAlign=middle;resizable=0;points=[];autosize=1;strokeColor=none;fontSize=18;fontColor=#000000;" parent="rj76JtiprAM9kb17LVoS-1" vertex="1">
                    <mxGeometry x="175" y="280" width="80" height="30" as="geometry"/>
                </mxCell>
                <mxCell id="Clul5AJN_ycNa1GeOR-2-26" value="&lt;font color=&quot;#990000&quot;&gt;1 JTAG下载固件方式驱动&lt;/font&gt;" style="text;html=1;strokeColor=none;fillColor=none;align=center;verticalAlign=middle;whiteSpace=wrap;rounded=0;" parent="rj76JtiprAM9kb17LVoS-1" vertex="1">
                    <mxGeometry x="195" y="500" width="145" height="20" as="geometry"/>
                </mxCell>
                <mxCell id="Clul5AJN_ycNa1GeOR-2-27" value="&lt;font color=&quot;#009900&quot;&gt;2 MCU下载配置方式驱动&lt;/font&gt;" style="text;html=1;strokeColor=none;fillColor=none;align=center;verticalAlign=middle;whiteSpace=wrap;rounded=0;" parent="rj76JtiprAM9kb17LVoS-1" vertex="1">
                    <mxGeometry x="350" y="500" width="155" height="20" as="geometry"/>
                </mxCell>
            </root>
        </mxGraphModel>
    </diagram>
    <diagram id="g5bflVJ8gjh-t6v_pZpy" name="第 6 页">
        <mxGraphModel dx="1053" dy="1030" grid="1" gridSize="10" guides="1" tooltips="1" connect="1" arrows="1" fold="1" page="1" pageScale="1" pageWidth="827" pageHeight="1169" math="0" shadow="0">
            <root>
                <mxCell id="As-BG1sr95RF4XgsUFE0-0"/>
                <mxCell id="As-BG1sr95RF4XgsUFE0-1" parent="As-BG1sr95RF4XgsUFE0-0"/>
                <mxCell id="hXatWQ-MKtQtF5o1kEgJ-0" value="" style="rounded=1;whiteSpace=wrap;html=1;fontSize=18;fontColor=#FFFFFF;strokeColor=#000000;fillColor=#B3B3B3;" parent="As-BG1sr95RF4XgsUFE0-1" vertex="1">
                    <mxGeometry x="190" y="350" width="270" height="130" as="geometry"/>
                </mxCell>
                <mxCell id="hXatWQ-MKtQtF5o1kEgJ-1" value="&lt;font color=&quot;#000000&quot;&gt;Local&lt;br&gt;Tester&lt;/font&gt;" style="rounded=0;whiteSpace=wrap;html=1;strokeColor=#2A2A2A;fillColor=#FFFFFF;" parent="As-BG1sr95RF4XgsUFE0-1" vertex="1">
                    <mxGeometry x="210" y="530" width="80" height="40" as="geometry"/>
                </mxCell>
                <mxCell id="hXatWQ-MKtQtF5o1kEgJ-4" value="&lt;font color=&quot;#000000&quot;&gt;GW DoIP&lt;/font&gt;" style="rounded=0;whiteSpace=wrap;html=1;strokeColor=#2A2A2A;fillColor=#FFFFFF;" parent="As-BG1sr95RF4XgsUFE0-1" vertex="1">
                    <mxGeometry x="210" y="380" width="80" height="40" as="geometry"/>
                </mxCell>
                <mxCell id="hXatWQ-MKtQtF5o1kEgJ-6" value="" style="endArrow=classic;html=1;strokeColor=#990000;exitX=0.5;exitY=0;exitDx=0;exitDy=0;entryX=0.5;entryY=1;entryDx=0;entryDy=0;" parent="As-BG1sr95RF4XgsUFE0-1" source="hXatWQ-MKtQtF5o1kEgJ-1" target="hXatWQ-MKtQtF5o1kEgJ-4" edge="1">
                    <mxGeometry width="50" height="50" relative="1" as="geometry">
                        <mxPoint x="350" y="450" as="sourcePoint"/>
                        <mxPoint x="400" y="400" as="targetPoint"/>
                    </mxGeometry>
                </mxCell>
                <mxCell id="hXatWQ-MKtQtF5o1kEgJ-29" value="" style="edgeStyle=orthogonalEdgeStyle;html=1;startArrow=none;startFill=0;endArrow=classic;endFill=1;strokeColor=#000099;fillColor=#000099;" parent="As-BG1sr95RF4XgsUFE0-1" source="hXatWQ-MKtQtF5o1kEgJ-27" target="hXatWQ-MKtQtF5o1kEgJ-4" edge="1">
                    <mxGeometry relative="1" as="geometry"/>
                </mxCell>
                <mxCell id="hXatWQ-MKtQtF5o1kEgJ-30" style="edgeStyle=orthogonalEdgeStyle;html=1;exitX=0.5;exitY=1;exitDx=0;exitDy=0;startArrow=none;endArrow=classic;strokeColor=#990000;entryX=0.75;entryY=1;entryDx=0;entryDy=0;" parent="As-BG1sr95RF4XgsUFE0-1" source="hXatWQ-MKtQtF5o1kEgJ-27" target="hXatWQ-MKtQtF5o1kEgJ-4" edge="1">
                    <mxGeometry relative="1" as="geometry">
                        <Array as="points">
                            <mxPoint x="400" y="450"/>
                            <mxPoint x="270" y="450"/>
                        </Array>
                    </mxGeometry>
                </mxCell>
                <mxCell id="hXatWQ-MKtQtF5o1kEgJ-27" value="&lt;font color=&quot;#000000&quot;&gt;TBOX&lt;/font&gt;" style="rounded=0;whiteSpace=wrap;html=1;strokeColor=#2A2A2A;fillColor=#FFFFFF;" parent="As-BG1sr95RF4XgsUFE0-1" vertex="1">
                    <mxGeometry x="360" y="380" width="80" height="40" as="geometry"/>
                </mxCell>
                <mxCell id="hXatWQ-MKtQtF5o1kEgJ-28" value="" style="endArrow=classic;startArrow=classic;html=1;strokeColor=#000099;fillColor=#000099;exitX=0.25;exitY=0;exitDx=0;exitDy=0;entryX=0.25;entryY=1;entryDx=0;entryDy=0;" parent="As-BG1sr95RF4XgsUFE0-1" source="hXatWQ-MKtQtF5o1kEgJ-1" target="hXatWQ-MKtQtF5o1kEgJ-4" edge="1">
                    <mxGeometry width="50" height="50" relative="1" as="geometry">
                        <mxPoint x="400" y="610" as="sourcePoint"/>
                        <mxPoint x="450" y="560" as="targetPoint"/>
                    </mxGeometry>
                </mxCell>
                <mxCell id="hXatWQ-MKtQtF5o1kEgJ-32" value="&lt;font color=&quot;#000000&quot; style=&quot;font-size: 8px&quot;&gt;激活线&lt;/font&gt;" style="text;html=1;strokeColor=none;fillColor=none;align=center;verticalAlign=middle;whiteSpace=wrap;rounded=0;" parent="As-BG1sr95RF4XgsUFE0-1" vertex="1">
                    <mxGeometry x="245" y="460" width="40" height="20" as="geometry"/>
                </mxCell>
                <mxCell id="hXatWQ-MKtQtF5o1kEgJ-33" value="&lt;font style=&quot;font-size: 8px&quot;&gt;&lt;font color=&quot;#000000&quot; style=&quot;font-size: 8px&quot;&gt;激活信号&lt;/font&gt;&lt;span style=&quot;color: rgb(51 , 51 , 51)&quot;&gt;DoIPEthActvn&lt;/span&gt;&lt;/font&gt;" style="text;html=1;strokeColor=none;fillColor=none;align=center;verticalAlign=middle;whiteSpace=wrap;rounded=0;" parent="As-BG1sr95RF4XgsUFE0-1" vertex="1">
                    <mxGeometry x="310" y="440" width="50" height="20" as="geometry"/>
                </mxCell>
                <mxCell id="hXatWQ-MKtQtF5o1kEgJ-34" value="&lt;font style=&quot;font-size: 7px&quot; color=&quot;#000000&quot;&gt;ETH&lt;/font&gt;" style="text;html=1;strokeColor=none;fillColor=none;align=center;verticalAlign=middle;whiteSpace=wrap;rounded=0;" parent="As-BG1sr95RF4XgsUFE0-1" vertex="1">
                    <mxGeometry x="310" y="380" width="40" height="20" as="geometry"/>
                </mxCell>
                <mxCell id="hXatWQ-MKtQtF5o1kEgJ-35" value="&lt;font style=&quot;font-size: 7px&quot; color=&quot;#000000&quot;&gt;ETH&lt;/font&gt;" style="text;html=1;strokeColor=none;fillColor=none;align=center;verticalAlign=middle;whiteSpace=wrap;rounded=0;" parent="As-BG1sr95RF4XgsUFE0-1" vertex="1">
                    <mxGeometry x="200.5" y="460" width="40" height="20" as="geometry"/>
                </mxCell>
                <mxCell id="hXatWQ-MKtQtF5o1kEgJ-36" value="&lt;font color=&quot;#000000&quot;&gt;Vehicle&lt;/font&gt;" style="text;html=1;strokeColor=none;fillColor=none;align=center;verticalAlign=middle;whiteSpace=wrap;rounded=0;" parent="As-BG1sr95RF4XgsUFE0-1" vertex="1">
                    <mxGeometry x="394" y="460" width="40" height="20" as="geometry"/>
                </mxCell>
            </root>
        </mxGraphModel>
    </diagram>
</mxfile>